<mxfile host="65bd71144e">
    <diagram name="Page-1" id="5f0bae14-7c28-e335-631c-24af17079c00">
        <mxGraphModel dx="1601" dy="1162" grid="1" gridSize="10" guides="1" tooltips="1" connect="1" arrows="1" fold="1" page="1" pageScale="1" pageWidth="1100" pageHeight="850" background="none" math="0" shadow="0">
            <root>
                <mxCell id="0"/>
                <mxCell id="1" parent="0"/>
                <mxCell id="-2r-90PtI8P-8tN_v8Jw-3" value="Quiz Application" style="shape=umlFrame;whiteSpace=wrap;html=1;pointerEvents=0;width=110;height=30;" parent="1" vertex="1">
                    <mxGeometry x="240" width="680" height="1040" as="geometry"/>
                </mxCell>
                <mxCell id="5" value="Full Scope" style="html=1;fillColor=#e1d5e7;verticalAlign=top;strokeColor=#9673a6;dashed=1;rounded=1;perimeterSpacing=0;perimeter=rectanglePerimeter;" vertex="1" parent="1">
                    <mxGeometry x="280" y="40" width="600" height="960" as="geometry"/>
                </mxCell>
                <mxCell id="2" value="DEMO (MVP)" style="html=1;fillColor=#d5e8d4;verticalAlign=top;strokeColor=#82b366;dashed=1;rounded=1;perimeterSpacing=0;perimeter=rectanglePerimeter;" vertex="1" parent="1">
                    <mxGeometry x="320" y="160" width="360" height="770" as="geometry"/>
                </mxCell>
                <mxCell id="-2r-90PtI8P-8tN_v8Jw-11" style="rounded=0;orthogonalLoop=1;jettySize=auto;html=1;endArrow=none;endFill=0;entryX=0;entryY=0.5;entryDx=0;entryDy=0;" parent="1" source="-2r-90PtI8P-8tN_v8Jw-1" target="-2r-90PtI8P-8tN_v8Jw-4" edge="1">
                    <mxGeometry relative="1" as="geometry"/>
                </mxCell>
                <mxCell id="-2r-90PtI8P-8tN_v8Jw-1" value="Unauthorised user" style="shape=umlActor;verticalLabelPosition=bottom;verticalAlign=top;html=1;fillColor=#f8cecc;strokeColor=#b85450;" parent="1" vertex="1">
                    <mxGeometry x="170" y="295" width="30" height="60" as="geometry"/>
                </mxCell>
                <mxCell id="-2r-90PtI8P-8tN_v8Jw-14" style="rounded=0;orthogonalLoop=1;jettySize=auto;html=1;endArrow=none;endFill=0;entryX=0;entryY=0.5;entryDx=0;entryDy=0;" parent="1" source="-2r-90PtI8P-8tN_v8Jw-2" target="-2r-90PtI8P-8tN_v8Jw-12" edge="1">
                    <mxGeometry relative="1" as="geometry"/>
                </mxCell>
                <mxCell id="-2r-90PtI8P-8tN_v8Jw-20" style="rounded=0;orthogonalLoop=1;jettySize=auto;html=1;endArrow=none;endFill=0;entryX=0;entryY=0.5;entryDx=0;entryDy=0;" parent="1" source="-2r-90PtI8P-8tN_v8Jw-2" target="-2r-90PtI8P-8tN_v8Jw-15" edge="1">
                    <mxGeometry relative="1" as="geometry"/>
                </mxCell>
                <mxCell id="-2r-90PtI8P-8tN_v8Jw-23" style="rounded=0;orthogonalLoop=1;jettySize=auto;html=1;endArrow=none;endFill=0;entryX=0;entryY=0.5;entryDx=0;entryDy=0;" parent="1" source="-2r-90PtI8P-8tN_v8Jw-2" target="-2r-90PtI8P-8tN_v8Jw-19" edge="1">
                    <mxGeometry relative="1" as="geometry"/>
                </mxCell>
                <mxCell id="-2r-90PtI8P-8tN_v8Jw-24" style="rounded=0;orthogonalLoop=1;jettySize=auto;html=1;endArrow=none;endFill=0;" parent="1" source="-2r-90PtI8P-8tN_v8Jw-2" target="-2r-90PtI8P-8tN_v8Jw-18" edge="1">
                    <mxGeometry relative="1" as="geometry"/>
                </mxCell>
                <mxCell id="-2r-90PtI8P-8tN_v8Jw-27" style="rounded=0;orthogonalLoop=1;jettySize=auto;html=1;endArrow=none;endFill=0;entryX=0;entryY=0.5;entryDx=0;entryDy=0;" parent="1" source="-2r-90PtI8P-8tN_v8Jw-2" target="-2r-90PtI8P-8tN_v8Jw-26" edge="1">
                    <mxGeometry relative="1" as="geometry"/>
                </mxCell>
                <mxCell id="-2r-90PtI8P-8tN_v8Jw-2" value="Authorised user" style="shape=umlActor;verticalLabelPosition=bottom;verticalAlign=top;html=1;fillColor=#dae8fc;strokeColor=#6c8ebf;" parent="1" vertex="1">
                    <mxGeometry x="170" y="650" width="30" height="60" as="geometry"/>
                </mxCell>
                <mxCell id="-2r-90PtI8P-8tN_v8Jw-4" value="Authentication" style="ellipse;whiteSpace=wrap;html=1;fillColor=#dae8fc;strokeColor=#6c8ebf;" parent="1" vertex="1">
                    <mxGeometry x="430" y="200" width="140" height="70" as="geometry"/>
                </mxCell>
                <mxCell id="-2r-90PtI8P-8tN_v8Jw-6" style="rounded=0;orthogonalLoop=1;jettySize=auto;html=1;dashed=1;endArrow=open;endFill=0;dashPattern=8 8;" parent="1" source="-2r-90PtI8P-8tN_v8Jw-5" target="-2r-90PtI8P-8tN_v8Jw-4" edge="1">
                    <mxGeometry relative="1" as="geometry"/>
                </mxCell>
                <mxCell id="-2r-90PtI8P-8tN_v8Jw-7" value="&amp;lt;&amp;lt;extend&amp;gt;&amp;gt;" style="edgeLabel;html=1;align=center;verticalAlign=middle;resizable=0;points=[];" parent="-2r-90PtI8P-8tN_v8Jw-6" vertex="1" connectable="0">
                    <mxGeometry x="-0.1091" y="1" relative="1" as="geometry">
                        <mxPoint as="offset"/>
                    </mxGeometry>
                </mxCell>
                <mxCell id="-2r-90PtI8P-8tN_v8Jw-5" value="Register" style="ellipse;whiteSpace=wrap;html=1;fillColor=#f8cecc;strokeColor=#b85450;" parent="1" vertex="1">
                    <mxGeometry x="520" y="310" width="140" height="70" as="geometry"/>
                </mxCell>
                <mxCell id="-2r-90PtI8P-8tN_v8Jw-9" style="rounded=0;orthogonalLoop=1;jettySize=auto;html=1;dashed=1;dashPattern=8 8;endArrow=open;endFill=0;" parent="1" source="-2r-90PtI8P-8tN_v8Jw-8" target="-2r-90PtI8P-8tN_v8Jw-4" edge="1">
                    <mxGeometry relative="1" as="geometry"/>
                </mxCell>
                <mxCell id="-2r-90PtI8P-8tN_v8Jw-10" value="&amp;lt;&amp;lt;extend&amp;gt;&amp;gt;" style="edgeLabel;html=1;align=center;verticalAlign=middle;resizable=0;points=[];" parent="-2r-90PtI8P-8tN_v8Jw-9" vertex="1" connectable="0">
                    <mxGeometry x="-0.1612" y="-1" relative="1" as="geometry">
                        <mxPoint as="offset"/>
                    </mxGeometry>
                </mxCell>
                <mxCell id="-2r-90PtI8P-8tN_v8Jw-8" value="Login" style="ellipse;whiteSpace=wrap;html=1;fillColor=#f8cecc;strokeColor=#b85450;" parent="1" vertex="1">
                    <mxGeometry x="340" y="310" width="140" height="70" as="geometry"/>
                </mxCell>
                <mxCell id="-2r-90PtI8P-8tN_v8Jw-16" value="" style="rounded=0;orthogonalLoop=1;jettySize=auto;html=1;endArrow=open;endFill=0;startArrow=none;startFill=0;dashed=1;dashPattern=8 8;" parent="1" source="-2r-90PtI8P-8tN_v8Jw-12" target="-2r-90PtI8P-8tN_v8Jw-15" edge="1">
                    <mxGeometry relative="1" as="geometry"/>
                </mxCell>
                <mxCell id="-2r-90PtI8P-8tN_v8Jw-17" value="&amp;lt;&amp;lt;includes&amp;gt;&amp;gt;" style="edgeLabel;html=1;align=center;verticalAlign=middle;resizable=0;points=[];" parent="-2r-90PtI8P-8tN_v8Jw-16" vertex="1" connectable="0">
                    <mxGeometry x="0.125" relative="1" as="geometry">
                        <mxPoint y="-11" as="offset"/>
                    </mxGeometry>
                </mxCell>
                <mxCell id="-2r-90PtI8P-8tN_v8Jw-12" value="Start quiz" style="ellipse;whiteSpace=wrap;html=1;fillColor=#dae8fc;strokeColor=#6c8ebf;" parent="1" vertex="1">
                    <mxGeometry x="430" y="420" width="140" height="70" as="geometry"/>
                </mxCell>
                <mxCell id="-2r-90PtI8P-8tN_v8Jw-13" value="User" style="shape=umlActor;verticalLabelPosition=bottom;verticalAlign=top;html=1;fillColor=#f5f5f5;fontColor=#333333;strokeColor=#666666;" parent="1" vertex="1">
                    <mxGeometry x="170" y="460" width="30" height="60" as="geometry"/>
                </mxCell>
                <mxCell id="-2r-90PtI8P-8tN_v8Jw-15" value="Get question" style="ellipse;whiteSpace=wrap;html=1;fillColor=#dae8fc;strokeColor=#6c8ebf;" parent="1" vertex="1">
                    <mxGeometry x="340" y="540" width="140" height="70" as="geometry"/>
                </mxCell>
                <mxCell id="-2r-90PtI8P-8tN_v8Jw-18" value="Answer question" style="ellipse;whiteSpace=wrap;html=1;fillColor=#dae8fc;strokeColor=#6c8ebf;" parent="1" vertex="1">
                    <mxGeometry x="430" y="645" width="140" height="70" as="geometry"/>
                </mxCell>
                <mxCell id="-2r-90PtI8P-8tN_v8Jw-19" value="Evaluate answer" style="ellipse;whiteSpace=wrap;html=1;fillColor=#dae8fc;strokeColor=#6c8ebf;" parent="1" vertex="1">
                    <mxGeometry x="430" y="750" width="140" height="70" as="geometry"/>
                </mxCell>
                <mxCell id="-2r-90PtI8P-8tN_v8Jw-26" value="Evaluate quiz" style="ellipse;whiteSpace=wrap;html=1;fillColor=#dae8fc;strokeColor=#6c8ebf;" parent="1" vertex="1">
                    <mxGeometry x="430" y="850" width="140" height="70" as="geometry"/>
                </mxCell>
                <mxCell id="-2r-90PtI8P-8tN_v8Jw-30" value="" style="endArrow=block;endSize=16;endFill=0;html=1;rounded=0;" parent="1" edge="1">
                    <mxGeometry width="160" relative="1" as="geometry">
                        <mxPoint x="185" y="550" as="sourcePoint"/>
                        <mxPoint x="185" y="640" as="targetPoint"/>
                    </mxGeometry>
                </mxCell>
                <mxCell id="-2r-90PtI8P-8tN_v8Jw-31" value="" style="endArrow=block;endSize=16;endFill=0;html=1;rounded=0;" parent="1" edge="1">
                    <mxGeometry width="160" relative="1" as="geometry">
                        <mxPoint x="185" y="450" as="sourcePoint"/>
                        <mxPoint x="185" y="380" as="targetPoint"/>
                        <mxPoint as="offset"/>
                    </mxGeometry>
                </mxCell>
                <mxCell id="3" value="Leaderboards" style="ellipse;whiteSpace=wrap;html=1;fillColor=#f5f5f5;strokeColor=#666666;fontColor=#333333;" vertex="1" parent="1">
                    <mxGeometry x="430" y="70" width="140" height="70" as="geometry"/>
                </mxCell>
                <mxCell id="4" style="rounded=0;orthogonalLoop=1;jettySize=auto;html=1;endArrow=none;endFill=0;entryX=0;entryY=0.5;entryDx=0;entryDy=0;exitX=1;exitY=0.25;exitDx=0;exitDy=0;exitPerimeter=0;" edge="1" parent="1" source="-2r-90PtI8P-8tN_v8Jw-1" target="3">
                    <mxGeometry relative="1" as="geometry">
                        <mxPoint x="200" y="220" as="sourcePoint"/>
                        <mxPoint x="330" y="225" as="targetPoint"/>
                    </mxGeometry>
                </mxCell>
                <mxCell id="6" value="Select Quiz" style="ellipse;whiteSpace=wrap;html=1;fillColor=#f5f5f5;strokeColor=#666666;fontColor=#333333;" vertex="1" parent="1">
                    <mxGeometry x="720" y="420" width="140" height="70" as="geometry"/>
                </mxCell>
                <mxCell id="7" value="" style="rounded=0;orthogonalLoop=1;jettySize=auto;html=1;endArrow=open;endFill=0;startArrow=none;startFill=0;dashed=1;dashPattern=8 8;entryX=0;entryY=0.5;entryDx=0;entryDy=0;exitX=1;exitY=0.5;exitDx=0;exitDy=0;" edge="1" parent="1" source="-2r-90PtI8P-8tN_v8Jw-12" target="6">
                    <mxGeometry relative="1" as="geometry">
                        <mxPoint x="400" y="500" as="sourcePoint"/>
                        <mxPoint x="400" y="555" as="targetPoint"/>
                    </mxGeometry>
                </mxCell>
                <mxCell id="8" value="&amp;lt;&amp;lt;includes&amp;gt;&amp;gt;" style="edgeLabel;html=1;align=center;verticalAlign=middle;resizable=0;points=[];" vertex="1" connectable="0" parent="7">
                    <mxGeometry x="0.125" relative="1" as="geometry">
                        <mxPoint x="-24" y="-11" as="offset"/>
                    </mxGeometry>
                </mxCell>
                <mxCell id="9" value="Answer History" style="ellipse;whiteSpace=wrap;html=1;fillColor=#f5f5f5;strokeColor=#666666;fontColor=#333333;" vertex="1" parent="1">
                    <mxGeometry x="720" y="850" width="140" height="70" as="geometry"/>
                </mxCell>
                <mxCell id="10" value="" style="rounded=0;orthogonalLoop=1;jettySize=auto;html=1;endArrow=open;endFill=0;startArrow=none;startFill=0;dashed=1;dashPattern=8 8;entryX=0;entryY=0.5;entryDx=0;entryDy=0;exitX=1;exitY=0.5;exitDx=0;exitDy=0;" edge="1" parent="1" source="-2r-90PtI8P-8tN_v8Jw-26" target="9">
                    <mxGeometry relative="1" as="geometry">
                        <mxPoint x="580" y="465" as="sourcePoint"/>
                        <mxPoint x="730" y="465" as="targetPoint"/>
                    </mxGeometry>
                </mxCell>
                <mxCell id="11" value="&amp;lt;&amp;lt;includes&amp;gt;&amp;gt;" style="edgeLabel;html=1;align=center;verticalAlign=middle;resizable=0;points=[];" vertex="1" connectable="0" parent="10">
                    <mxGeometry x="0.125" relative="1" as="geometry">
                        <mxPoint x="-14" y="-11" as="offset"/>
                    </mxGeometry>
                </mxCell>
                <mxCell id="12" value="Persist Progress" style="ellipse;whiteSpace=wrap;html=1;fillColor=#dae8fc;strokeColor=#6c8ebf;" vertex="1" parent="1">
                    <mxGeometry x="520" y="540" width="140" height="70" as="geometry"/>
                </mxCell>
                <mxCell id="13" value="" style="rounded=0;orthogonalLoop=1;jettySize=auto;html=1;endArrow=open;endFill=0;startArrow=none;startFill=0;dashed=1;dashPattern=8 8;" edge="1" parent="1" source="-2r-90PtI8P-8tN_v8Jw-12" target="12">
                    <mxGeometry relative="1" as="geometry">
                        <mxPoint x="485.5039784685855" y="497.78698266512447" as="sourcePoint"/>
                        <mxPoint x="444.57864091118586" y="552.2284787850854" as="targetPoint"/>
                    </mxGeometry>
                </mxCell>
                <mxCell id="14" value="&amp;lt;&amp;lt;includes&amp;gt;&amp;gt;" style="edgeLabel;html=1;align=center;verticalAlign=middle;resizable=0;points=[];" vertex="1" connectable="0" parent="13">
                    <mxGeometry x="0.125" relative="1" as="geometry">
                        <mxPoint y="-11" as="offset"/>
                    </mxGeometry>
                </mxCell>
            </root>
        </mxGraphModel>
    </diagram>
</mxfile>